<svg xmlns="http://www.w3.org/2000/svg" viewBox="0 0 1200 630" width="1200" height="630">
  <rect width="1200" height="630" fill="#1a1b26"/>
  <rect x="40" y="40" width="1120" height="550" rx="24" fill="#24283b"/>
  <rect x="40" y="40" width="1120" height="550" rx="24" stroke="#414868" stroke-width="2" fill="none"/>

  <!-- Cat face icon (simplified from favicon) -->
  <g transform="translate(500, 120) scale(2)">
    <polygon points="15,20 85,20 75,0 25,0" fill="#C28F5A"/>
    <polygon points="15,20 85,20 85,50 15,50" fill="#8C6239"/>
    <polygon points="30,10 42,25 25,30" fill="#6D4C41"/>
    <polygon points="70,10 58,25 75,30" fill="#6D4C41"/>
    <polygon points="32,15 40,24 29,26" fill="#A1887F"/>
    <polygon points="68,15 60,24 71,26" fill="#A1887F"/>
    <polygon points="42,25 58,25 50,38" fill="#8D6E63"/>
    <polygon points="33,34 43,34 38,39" fill="#6B8E23"/>
    <polygon points="67,34 57,34 62,39" fill="#6B8E23"/>
    <polygon points="35,43 50,41 50,50 40,53" fill="#D7CCC8"/>
    <polygon points="65,43 50,41 50,50 60,53" fill="#D7CCC8"/>
    <polygon points="48,41 52,41 50,45" fill="#E08283"/>
    <polygon points="15,50 85,50 85,85 15,85" fill="#D4A373"/>
    <polygon points="15,50 85,50 75,73 25,73" fill="#C28F5A"/>
  </g>

  <!-- Title -->
  <text x="600" y="400" text-anchor="middle" font-family="sans-serif" font-weight="700" font-size="64" fill="#c0caf5">Clawset</text>

  <!-- Subtitle -->
  <text x="600" y="460" text-anchor="middle" font-family="sans-serif" font-weight="400" font-size="28" fill="#a9b1d6">Mewgenics Furniture Manager &amp; Room Designer</text>

  <!-- Feature pills -->
  <g transform="translate(600, 520)" text-anchor="middle" font-family="sans-serif" font-size="18" fill="#7aa2f7">
    <text x="-350" y="0">1250+ Items</text>
    <text x="-150" y="0">Collection Tracker</text>
    <text x="80" y="0">Save Import</text>
    <text x="280" y="0">Room Designer</text>
  </g>
</svg>
