<svg xmlns="http://www.w3.org/2000/svg" viewBox="0 0 100 100" width="100%" height="100%">

    <polygon points="15,45 85,45 75,25 25,25" fill="#C28F5A" />
    <polygon points="15,45 85,45 85,75 15,75" fill="#8C6239" />

    <polygon points="35,68 65,68 50,85" fill="#5D4037" />

    <polygon points="30,35 42,50 25,55" fill="#6D4C41" />
    <polygon points="70,35 58,50 75,55" fill="#6D4C41" />
    <polygon points="32,40 40,49 29,51" fill="#A1887F" />
    <polygon points="68,40 60,49 71,51" fill="#A1887F" />

    <polygon points="42,50 58,50 50,63" fill="#8D6E63" />
    <polygon points="46,50 50,57 54,50 50,54" fill="#3E2723" />

<!--    tutaj-->
    <polygon points="25,105 42,100 50,68 20,65" fill="#6D4C41" />
    <polygon points="25,55 42,50 35,68 20,65" fill="#6D4C41" />
    <polygon points="75,105 58,100 50,68 80,65" fill="#6D4C41" />
    <polygon points="75,55 58,50 65,68 80,65" fill="#6D4C41" />

    <polygon points="42,50 50,63 35,68" fill="#8D6E63" />
    <polygon points="42,50 60,73 35,68" fill="#8D6E63" />
    <polygon points="58,50 50,63 65,68" fill="#8D6E63" />
    <polygon points="58,50 50,73 65,68" fill="#8D6E63" />

    <polygon points="22,63 35,66 25,68" fill="#3E2723" />
    <polygon points="78,63 65,66 75,68" fill="#3E2723" />

    <polygon points="47,63 53,63 50,66" fill="#6D4C41" />

    <polygon points="35,68 50,66 50,75 40,78" fill="#D7CCC8" />
    <polygon points="65,68 50,66 50,75 60,78" fill="#D7CCC8" />
    <polygon points="48,66 52,66 50,70" fill="#E08283" />

    <polygon points="33,59 43,59 38,64" fill="#6B8E23" />
    <polygon points="67,59 57,59 62,64" fill="#6B8E23" />
    <polygon points="37,59 39,59 38,64" fill="#1A1A1A" />
    <polygon points="63,59 61,59 62,64" fill="#1A1A1A" />

    <polygon points="15,75 15,45 3,35 3,65" fill="#E6B981" />
    <polygon points="85,75 85,45 97,35 97,65" fill="#E6B981" />
    <polygon points="15,75 85,75 85,100 15,100" fill="#D4A373" />
    <polygon points="15,75 85,75 75,98 25,98" fill="#C28F5A" />
    <polygon points="28,72 42,72 35,85" fill="#6D4C41" />
    <polygon points="31,76 39,76 35,81" fill="#3E2723" />
    <polygon points="72,72 58,72 65,85" fill="#6D4C41" />
    <polygon points="69,76 61,76 65,81" fill="#3E2723" />

</svg>
